<?xml version="1.0" encoding="utf-8"?>
<!-- Generator: Adobe Illustrator 24.0.1, SVG Export Plug-In . SVG Version: 6.00 Build 0)  -->
<svg version="1.1" id="Layer_1" xmlns="http://www.w3.org/2000/svg" xmlns:xlink="http://www.w3.org/1999/xlink" x="0px" y="0px"
	 viewBox="0 0 91 60" style="enable-background:new 0 0 91 60;" xml:space="preserve">
<g>
	<g>
		<path d="M89.5,60h-88C0.7,60,0,59.3,0,58.5v-4C0,53.7,0.7,53,1.5,53h88c0.8,0,1.5,0.7,1.5,1.5v4C91,59.3,90.3,60,89.5,60z M3,57
			h85v-1H3V57z"/>
	</g>
	<g>
		<path d="M19.5,56h-14C4.7,56,4,55.3,4,54.5V31.8c0-0.7,0.5-1.3,1.1-1.5l14-3.7c0.5-0.1,0.9,0,1.3,0.3c0.4,0.3,0.6,0.7,0.6,1.2
			v26.4C21,55.3,20.3,56,19.5,56z M7,53h11V30.1L7,33V53z"/>
	</g>
	<g>
		<path d="M85.5,56h-14c-0.8,0-1.5-0.7-1.5-1.5V28.1c0-0.5,0.2-0.9,0.6-1.2c0.4-0.3,0.8-0.4,1.3-0.3l14,3.7c0.7,0.2,1.1,0.8,1.1,1.5
			v22.7C87,55.3,86.3,56,85.5,56z M73,53h11V33l-11-2.9V53z"/>
	</g>
	<g>
		<path d="M53,17H38c-0.8,0-1.5-0.7-1.5-1.5v-14C36.5,0.7,37.2,0,38,0h15c0.8,0,1.5,0.7,1.5,1.5v14C54.5,16.3,53.8,17,53,17z
			 M39.5,14h12V3h-12V14z"/>
	</g>
	<g>
		<path d="M62.5,25h-4c-0.8,0-1.5-0.7-1.5-1.5v-4c0-0.8,0.7-1.5,1.5-1.5h4c0.8,0,1.5,0.7,1.5,1.5v4C64,24.3,63.3,25,62.5,25z M60,22
			h1v-1h-1V22z"/>
	</g>
	<g>
		<path d="M52.5,25h-4c-0.8,0-1.5-0.7-1.5-1.5v-4c0-0.8,0.7-1.5,1.5-1.5h4c0.8,0,1.5,0.7,1.5,1.5v4C54,24.3,53.3,25,52.5,25z M50,22
			h1v-1h-1V22z"/>
	</g>
	<g>
		<path d="M41.5,25h-4c-0.8,0-1.5-0.7-1.5-1.5v-4c0-0.8,0.7-1.5,1.5-1.5h4c0.8,0,1.5,0.7,1.5,1.5v4C43,24.3,42.3,25,41.5,25z M39,22
			h1v-1h-1V22z"/>
	</g>
	<g>
		<path d="M31.5,25h-4c-0.8,0-1.5-0.7-1.5-1.5v-4c0-0.8,0.7-1.5,1.5-1.5h4c0.8,0,1.5,0.7,1.5,1.5v4C33,24.3,32.3,25,31.5,25z M29,22
			h1v-1h-1V22z"/>
	</g>
	<g>
		<path d="M62.5,34h-4c-0.8,0-1.5-0.7-1.5-1.5v-4c0-0.8,0.7-1.5,1.5-1.5h4c0.8,0,1.5,0.7,1.5,1.5v4C64,33.3,63.3,34,62.5,34z M60,31
			h1v-1h-1V31z"/>
	</g>
	<g>
		<path d="M52.5,34h-4c-0.8,0-1.5-0.7-1.5-1.5v-4c0-0.8,0.7-1.5,1.5-1.5h4c0.8,0,1.5,0.7,1.5,1.5v4C54,33.3,53.3,34,52.5,34z M50,31
			h1v-1h-1V31z"/>
	</g>
	<g>
		<path d="M41.5,34h-4c-0.8,0-1.5-0.7-1.5-1.5v-4c0-0.8,0.7-1.5,1.5-1.5h4c0.8,0,1.5,0.7,1.5,1.5v4C43,33.3,42.3,34,41.5,34z M39,31
			h1v-1h-1V31z"/>
	</g>
	<g>
		<path d="M31.5,34h-4c-0.8,0-1.5-0.7-1.5-1.5v-4c0-0.8,0.7-1.5,1.5-1.5h4c0.8,0,1.5,0.7,1.5,1.5v4C33,33.3,32.3,34,31.5,34z M29,31
			h1v-1h-1V31z"/>
	</g>
	<g>
		<g>
			<path d="M80.5,51h-4c-0.8,0-1.5-0.7-1.5-1.5v-4c0-0.8,0.7-1.5,1.5-1.5h4c0.8,0,1.5,0.7,1.5,1.5v4C82,50.3,81.3,51,80.5,51z
				 M78,48h1v-1h-1V48z"/>
		</g>
		<g>
			<path d="M80.5,41h-4c-0.8,0-1.5-0.7-1.5-1.5v-4c0-0.8,0.7-1.5,1.5-1.5h4c0.8,0,1.5,0.7,1.5,1.5v4C82,40.3,81.3,41,80.5,41z
				 M78,38h1v-1h-1V38z"/>
		</g>
	</g>
	<g>
		<g>
			<path d="M14.5,51h-4C9.7,51,9,50.3,9,49.5v-4c0-0.8,0.7-1.5,1.5-1.5h4c0.8,0,1.5,0.7,1.5,1.5v4C16,50.3,15.3,51,14.5,51z M12,48
				h1v-1h-1V48z"/>
		</g>
		<g>
			<path d="M14.5,41h-4C9.7,41,9,40.3,9,39.5v-4c0-0.8,0.7-1.5,1.5-1.5h4c0.8,0,1.5,0.7,1.5,1.5v4C16,40.3,15.3,41,14.5,41z M12,38
				h1v-1h-1V38z"/>
		</g>
	</g>
	<g>
		<g>
			<path d="M45.5,13.6c-0.8,0-1.5-0.7-1.5-1.5V4.9c0-0.8,0.7-1.5,1.5-1.5S47,4.1,47,4.9v7.1C47,12.9,46.3,13.6,45.5,13.6z"/>
		</g>
		<g>
			<path d="M49.1,10h-7.1c-0.8,0-1.5-0.7-1.5-1.5S41.1,7,41.9,7h7.1c0.8,0,1.5,0.7,1.5,1.5S49.9,10,49.1,10z"/>
		</g>
	</g>
	<g>
		<g>
			<path d="M35.3,47.5c-0.5,0-1-0.2-1.3-0.7c-0.5-0.7-0.3-1.6,0.4-2.1l5.5-3.7c0.7-0.5,1.6-0.3,2.1,0.4c0.5,0.7,0.3,1.6-0.4,2.1
				l-5.5,3.7C35.8,47.4,35.5,47.5,35.3,47.5z"/>
		</g>
		<g>
			<path d="M35.3,51.2c-0.5,0-1-0.2-1.3-0.7c-0.5-0.7-0.3-1.6,0.4-2.1l5.5-3.7c0.7-0.5,1.6-0.3,2.1,0.4c0.5,0.7,0.3,1.6-0.4,2.1
				l-5.5,3.7C35.8,51.1,35.5,51.2,35.3,51.2z"/>
		</g>
	</g>
	<g>
		<g>
			<path d="M50.3,47.5c-0.5,0-1-0.2-1.3-0.7c-0.5-0.7-0.3-1.6,0.4-2.1l5.5-3.7c0.7-0.5,1.6-0.3,2.1,0.4s0.3,1.6-0.4,2.1l-5.5,3.7
				C50.8,47.4,50.5,47.5,50.3,47.5z"/>
		</g>
		<g>
			<path d="M50.3,51.2c-0.5,0-1-0.2-1.3-0.7c-0.5-0.7-0.3-1.6,0.4-2.1l5.5-3.7c0.7-0.5,1.6-0.3,2.1,0.4s0.3,1.6-0.4,2.1l-5.5,3.7
				C50.8,51.1,50.5,51.2,50.3,51.2z"/>
		</g>
	</g>
	<g>
		<path d="M60,56H31c-0.8,0-1.5-0.7-1.5-1.5v-17c0-0.8,0.7-1.5,1.5-1.5h29c0.8,0,1.5,0.7,1.5,1.5v17C61.5,55.3,60.8,56,60,56z
			 M32.5,53h26V39h-26V53z"/>
	</g>
	<g>
		<path d="M45.5,56c-0.8,0-1.5-0.7-1.5-1.5v-17c0-0.8,0.7-1.5,1.5-1.5s1.5,0.7,1.5,1.5v17C47,55.3,46.3,56,45.5,56z"/>
	</g>
	<g>
		<path d="M71.5,56h-52c-0.8,0-1.5-0.7-1.5-1.5v-45C18,8.7,18.7,8,19.5,8h18C38.3,8,39,8.7,39,9.5S38.3,11,37.5,11H21v42h49V11H53.5
			c-0.8,0-1.5-0.7-1.5-1.5S52.7,8,53.5,8h18C72.3,8,73,8.7,73,9.5v45C73,55.3,72.3,56,71.5,56z"/>
	</g>
</g>
</svg>
