<svg width="21" height="21" viewBox="0 0 21 21" fill="none" xmlns="http://www.w3.org/2000/svg">
<path fill-rule="evenodd" clip-rule="evenodd" d="M19.8825 0.40875L20.0625 0.375C20.3775 0.375 20.625 0.6225 20.625 0.9375V17.9475C20.625 18.2062 20.4562 18.4088 20.22 18.4875L13.875 20.625L7.125 18.2625L1.1175 20.5912L0.9375 20.625C0.6225 20.625 0.375 20.3775 0.375 20.0625V3.0525C0.375 2.79375 0.54375 2.59125 0.78 2.5125L7.125 0.375L13.875 2.7375L19.8825 0.40875ZM12.75 4.72875L8.25 3.15375V16.2712L12.75 17.8462V4.72875ZM2.625 4.26749L6 3.13124V16.2937L2.625 17.5987V4.26749ZM15 17.8687L18.375 16.7325V3.41249L15 4.71749V17.8687Z" fill="black"/>
</svg>
