<svg width="21" height="21" viewBox="0 0 21 21" fill="none" xmlns="http://www.w3.org/2000/svg">
<path fill-rule="evenodd" clip-rule="evenodd" d="M1.5 0.375H5.4375C6.05625 0.375 6.5625 0.88125 6.5625 1.5C6.5625 2.90625 6.7875 4.25625 7.20375 5.51625C7.3275 5.91 7.2375 6.34875 6.9225 6.66375L4.4475 9.13875C6.0675 12.3225 8.6775 14.9213 11.8613 16.5525L14.3363 14.0775C14.5613 13.8638 14.8425 13.7513 15.135 13.7513C15.2475 13.7513 15.3713 13.7625 15.4838 13.8075C16.7438 14.2237 18.105 14.4488 19.5 14.4488C20.1188 14.4488 20.625 14.955 20.625 15.5738V19.5C20.625 20.1187 20.1188 20.625 19.5 20.625C8.93625 20.625 0.375 12.0638 0.375 1.5C0.375 0.88125 0.88125 0.375 1.5 0.375ZM4.3575 2.625C4.425 3.62625 4.59375 4.605 4.86375 5.53875L3.51375 6.88875C3.0525 5.53875 2.76 4.11 2.65875 2.625H4.3575ZM15.45 16.1475C16.4062 16.4175 17.385 16.5863 18.375 16.6538V18.33C16.89 18.2288 15.4612 17.9363 14.1 17.4863L15.45 16.1475Z" fill="black" />
</svg>
