<svg width="24" height="18" viewBox="0 0 24 18" fill="none" xmlns="http://www.w3.org/2000/svg">
<path fill-rule="evenodd" clip-rule="evenodd" d="M2 0H22C23.1 0 24 0.9 24 2L23.99 16C23.99 17.1 23.1 18 22 18H2C0.9 18 0 17.1 0 16V2C0 0.9 0.9 0 2 0ZM2 16H22V2H2V16ZM21 3H14V8H21V3ZM17.5 6.75L20 5V4L17.5 5.75L15 4V5L17.5 6.75ZM9 9C10.65 9 12 7.65 12 6C12 4.35 10.65 3 9 3C7.35 3 6 4.35 6 6C6 7.65 7.35 9 9 9ZM10 6C10 5.45 9.55 5 9 5C8.45 5 8 5.45 8 6C8 6.55 8.45 7 9 7C9.55 7 10 6.55 10 6ZM15 13.59C15 11.09 11.03 10.01 9 10.01C6.97 10.01 3 11.09 3 13.59V15H15V13.59ZM9 12C7.7 12 6.22 12.5 5.48 13H12.52C11.77 12.49 10.3 12 9 12Z" fill="black"/>
</svg>
