<svg width="24" height="24" viewBox="0 0 24 24" fill="none" xmlns="http://www.w3.org/2000/svg">
<path fill-rule="evenodd" clip-rule="evenodd" d="M12 24C18.6274 24 24 18.6274 24 12C24 5.37258 18.6274 0 12 0C5.37258 0 0 5.37258 0 12C0 18.6274 5.37258 24 12 24ZM13.9956 4.09756H16.3902V7.25854H13.9956C13.7839 7.25854 13.5808 7.34179 13.4311 7.48999C13.2814 7.63819 13.1973 7.83919 13.1973 8.04878V10.4195H16.3902L15.592 13.5805H13.1973V19.9024H10.0044V13.5805H7.60976V10.4195H10.0044V8.04878C10.0044 7.00085 10.4249 5.99584 11.1734 5.25485C11.9219 4.51385 12.9371 4.09756 13.9956 4.09756Z" fill="black"/>
</svg>
