<?xml version="1.0" encoding="utf-8"?>
<!-- Generator: Adobe Illustrator 24.0.1, SVG Export Plug-In . SVG Version: 6.00 Build 0)  -->
<svg version="1.1" id="Layer_1" xmlns="http://www.w3.org/2000/svg" xmlns:xlink="http://www.w3.org/1999/xlink" x="0px" y="0px"
	 viewBox="0 0 65.4 90.5" style="enable-background:new 0 0 65.4 90.5;" xml:space="preserve">
<g>
	<g>
		<path d="M60.9,90.5H4.5C2,90.5,0,88.5,0,86V4.5C0,2,2,0,4.5,0h56.4c2.5,0,4.5,2,4.5,4.5V86C65.4,88.5,63.4,90.5,60.9,90.5z M4.5,3
			C3.7,3,3,3.7,3,4.5V86c0,0.8,0.7,1.5,1.5,1.5h56.4c0.8,0,1.5-0.7,1.5-1.5V4.5c0-0.8-0.7-1.5-1.5-1.5H4.5z"/>
	</g>
	<g>
		<path d="M63.5,75.3H2c-0.8,0-1.5-0.7-1.5-1.5s0.7-1.5,1.5-1.5h61.5c0.8,0,1.5,0.7,1.5,1.5S64.3,75.3,63.5,75.3z"/>
	</g>
	<g>
		<g>
			<path d="M35.7,50.6h-6c-0.8,0-1.5-0.7-1.5-1.5v-5.5h-5.5c-0.8,0-1.5-0.7-1.5-1.5v-6c0-0.8,0.7-1.5,1.5-1.5h5.5v-5.5
				c0-0.8,0.7-1.5,1.5-1.5h6c0.8,0,1.5,0.7,1.5,1.5v5.5h5.5c0.8,0,1.5,0.7,1.5,1.5v6c0,0.8-0.7,1.5-1.5,1.5h-5.5v5.5
				C37.2,49.9,36.5,50.6,35.7,50.6z M31.2,47.6h3v-5.5c0-0.8,0.7-1.5,1.5-1.5h5.5v-3h-5.5c-0.8,0-1.5-0.7-1.5-1.5v-5.5h-3v5.5
				c0,0.8-0.7,1.5-1.5,1.5h-5.5v3h5.5c0.8,0,1.5,0.7,1.5,1.5V47.6z"/>
		</g>
		<g>
			<path d="M48.5,56.4H16.9c-0.8,0-1.5-0.7-1.5-1.5V23.3c0-0.8,0.7-1.5,1.5-1.5h31.6c0.8,0,1.5,0.7,1.5,1.5v31.6
				C50,55.7,49.3,56.4,48.5,56.4z M18.4,53.4H47V24.8H18.4V53.4z"/>
		</g>
	</g>
	<g>
		<path d="M32.7,82.7c-0.4,0-0.8-0.2-1.1-0.4c-0.3-0.3-0.4-0.7-0.4-1.1c0-0.4,0.2-0.8,0.4-1.1c0.6-0.6,1.6-0.6,2.1,0
			c0.3,0.3,0.4,0.7,0.4,1.1c0,0.4-0.2,0.8-0.4,1.1S33.1,82.7,32.7,82.7z"/>
	</g>
</g>
</svg>
