<?xml version="1.0" encoding="utf-8"?>
<!-- Generator: Adobe Illustrator 24.0.1, SVG Export Plug-In . SVG Version: 6.00 Build 0)  -->
<svg version="1.1" id="Layer_1" xmlns="http://www.w3.org/2000/svg" xmlns:xlink="http://www.w3.org/1999/xlink" x="0px" y="0px"
	 viewBox="0 0 48 48" style="enable-background:new 0 0 48 48;" xml:space="preserve">
<style type="text/css">
	.st0{fill:none;stroke:#000000;stroke-width:2;stroke-miterlimit:10;}
</style>
<g>
	<path class="st0" d="M38.9,23h-3.8c-0.1,0-0.1-0.1-0.1-0.1V6.4c0,0,0-0.1,0-0.1l1.9-2.3c0-0.1,0.1-0.1,0.2,0L39,6.4c0,0,0,0,0,0.1
		v16.4C39,22.9,38.9,23,38.9,23z"/>
	<line class="st0" x1="35" y1="19" x2="39" y2="19"/>
	<line class="st0" x1="35" y1="9" x2="39" y2="9"/>
	<g>
		<path class="st0" d="M39,7h6.2c1,0,1.8,0.8,1.8,1.8v29.4c0,1-0.8,1.8-1.8,1.8H2.8c-1,0-1.8-0.8-1.8-1.8V8.8C1,7.8,1.8,7,2.8,7H9"
			/>
		<g>
			<line class="st0" x1="16" y1="40" x2="16" y2="47"/>
			<line class="st0" x1="32" y1="40" x2="32" y2="47"/>
		</g>
		<line class="st0" x1="11" y1="47" x2="37" y2="47"/>
		<line class="st0" x1="47" y1="34" x2="1" y2="34"/>
	</g>
	<g>
		<path class="st0" d="M13.7,5h12.6C26.7,5,27,5.3,27,5.7v7.6c0,0.4-0.3,0.7-0.7,0.7H13.7c-0.4,0-0.7-0.3-0.7-0.7V5.7
			C13,5.3,13.3,5,13.7,5z"/>
		<line class="st0" x1="13" y1="14" x2="27" y2="5"/>
		<line class="st0" x1="27" y1="14" x2="13" y2="5"/>
	</g>
	<line class="st0" x1="42" y1="27" x2="6" y2="27"/>
	<path class="st0" d="M10,1h20c0.5,0,1,0.4,1,1v24c0,0.5-0.4,1-1,1H10c-0.5,0-1-0.4-1-1V2C9,1.4,9.4,1,10,1z"/>
	<line class="st0" x1="12.3" y1="19" x2="27.7" y2="19"/>
	<line class="st0" x1="15.6" y1="23" x2="24.4" y2="23"/>
</g>
</svg>
