<svg version="1.1" id="Layer_1" xmlns="http://www.w3.org/2000/svg" x="0" y="0" viewBox="0 0 48 48" xml:space="preserve"><style>.st0{fill:none;stroke:#000;stroke-width:2;stroke-miterlimit:10}</style><path class="st0" d="M38.9 23h-3.8c-.1 0-.1-.1-.1-.1V6.3L36.9 4c0-.1.1-.1.2 0L39 6.4v16.5l-.1.1zM35 19h4M35 9h4"/><path class="st0" d="M39 7h6.2c1 0 1.8.8 1.8 1.8v29.4c0 1-.8 1.8-1.8 1.8H2.8c-1 0-1.8-.8-1.8-1.8V8.8C1 7.8 1.8 7 2.8 7H9m7 33v7m16-7v7m-21 0h26m10-13H1"/><path class="st0" d="M13.7 5h12.6c.4 0 .7.3.7.7v7.6c0 .4-.3.7-.7.7H13.7c-.4 0-.7-.3-.7-.7V5.7c0-.4.3-.7.7-.7zm-.7 9l14-9m0 9L13 5m29 22H6"/><path class="st0" d="M10 1h20c.5 0 1 .4 1 1v24c0 .5-.4 1-1 1H10c-.5 0-1-.4-1-1V2c0-.6.4-1 1-1zm2.3 18h15.4m-12.1 4h8.8"/></svg>