<svg xmlns="http://www.w3.org/2000/svg" viewBox="0 0 91 60"><path d="M89.5 60h-88C.7 60 0 59.3 0 58.5v-4c0-.8.7-1.5 1.5-1.5h88c.8 0 1.5.7 1.5 1.5v4c0 .8-.7 1.5-1.5 1.5zM3 57h85v-1H3v1z"/><path d="M19.5 56h-14c-.8 0-1.5-.7-1.5-1.5V31.8c0-.7.5-1.3 1.1-1.5l14-3.7c.5-.1.9 0 1.3.3s.6.7.6 1.2v26.4c0 .8-.7 1.5-1.5 1.5zM7 53h11V30.1L7 33v20zm78.5 3h-14c-.8 0-1.5-.7-1.5-1.5V28.1c0-.5.2-.9.6-1.2.4-.3.8-.4 1.3-.3l14 3.7c.7.2 1.1.8 1.1 1.5v22.7c0 .8-.7 1.5-1.5 1.5zM73 53h11V33l-11-2.9V53zM53 17H38c-.8 0-1.5-.7-1.5-1.5v-14c0-.8.7-1.5 1.5-1.5h15c.8 0 1.5.7 1.5 1.5v14c0 .8-.7 1.5-1.5 1.5zm-13.5-3h12V3h-12v11zm23 11h-4c-.8 0-1.5-.7-1.5-1.5v-4c0-.8.7-1.5 1.5-1.5h4c.8 0 1.5.7 1.5 1.5v4c0 .8-.7 1.5-1.5 1.5zM60 22h1v-1h-1v1zm-7.5 3h-4c-.8 0-1.5-.7-1.5-1.5v-4c0-.8.7-1.5 1.5-1.5h4c.8 0 1.5.7 1.5 1.5v4c0 .8-.7 1.5-1.5 1.5zM50 22h1v-1h-1v1zm-8.5 3h-4c-.8 0-1.5-.7-1.5-1.5v-4c0-.8.7-1.5 1.5-1.5h4c.8 0 1.5.7 1.5 1.5v4c0 .8-.7 1.5-1.5 1.5zM39 22h1v-1h-1v1zm-7.5 3h-4c-.8 0-1.5-.7-1.5-1.5v-4c0-.8.7-1.5 1.5-1.5h4c.8 0 1.5.7 1.5 1.5v4c0 .8-.7 1.5-1.5 1.5zM29 22h1v-1h-1v1zm33.5 12h-4c-.8 0-1.5-.7-1.5-1.5v-4c0-.8.7-1.5 1.5-1.5h4c.8 0 1.5.7 1.5 1.5v4c0 .8-.7 1.5-1.5 1.5zM60 31h1v-1h-1v1zm-7.5 3h-4c-.8 0-1.5-.7-1.5-1.5v-4c0-.8.7-1.5 1.5-1.5h4c.8 0 1.5.7 1.5 1.5v4c0 .8-.7 1.5-1.5 1.5zM50 31h1v-1h-1v1zm-8.5 3h-4c-.8 0-1.5-.7-1.5-1.5v-4c0-.8.7-1.5 1.5-1.5h4c.8 0 1.5.7 1.5 1.5v4c0 .8-.7 1.5-1.5 1.5zM39 31h1v-1h-1v1zm-7.5 3h-4c-.8 0-1.5-.7-1.5-1.5v-4c0-.8.7-1.5 1.5-1.5h4c.8 0 1.5.7 1.5 1.5v4c0 .8-.7 1.5-1.5 1.5zM29 31h1v-1h-1v1z"/><path d="M80.5 51h-4c-.8 0-1.5-.7-1.5-1.5v-4c0-.8.7-1.5 1.5-1.5h4c.8 0 1.5.7 1.5 1.5v4c0 .8-.7 1.5-1.5 1.5zM78 48h1v-1h-1v1zm2.5-7h-4c-.8 0-1.5-.7-1.5-1.5v-4c0-.8.7-1.5 1.5-1.5h4c.8 0 1.5.7 1.5 1.5v4c0 .8-.7 1.5-1.5 1.5zM78 38h1v-1h-1v1zM14.5 51h-4c-.8 0-1.5-.7-1.5-1.5v-4c0-.8.7-1.5 1.5-1.5h4c.8 0 1.5.7 1.5 1.5v4c0 .8-.7 1.5-1.5 1.5zM12 48h1v-1h-1v1zm2.5-7h-4c-.8 0-1.5-.7-1.5-1.5v-4c0-.8.7-1.5 1.5-1.5h4c.8 0 1.5.7 1.5 1.5v4c0 .8-.7 1.5-1.5 1.5zM12 38h1v-1h-1v1zm33.5-24.4c-.8 0-1.5-.7-1.5-1.5V4.9c0-.8.7-1.5 1.5-1.5s1.5.7 1.5 1.5V12c0 .9-.7 1.6-1.5 1.6z"/><path d="M49.1 10H42c-.8 0-1.5-.7-1.5-1.5S41.1 7 41.9 7H49c.8 0 1.5.7 1.5 1.5s-.6 1.5-1.4 1.5zM35.3 47.5c-.5 0-1-.2-1.3-.7-.5-.7-.3-1.6.4-2.1l5.5-3.7c.7-.5 1.6-.3 2.1.4s.3 1.6-.4 2.1l-5.5 3.7c-.3.2-.6.3-.8.3zm0 3.7c-.5 0-1-.2-1.3-.7-.5-.7-.3-1.6.4-2.1l5.5-3.7c.7-.5 1.6-.3 2.1.4s.3 1.6-.4 2.1l-5.5 3.7c-.3.2-.6.3-.8.3zm15-3.7c-.5 0-1-.2-1.3-.7-.5-.7-.3-1.6.4-2.1l5.5-3.7c.7-.5 1.6-.3 2.1.4s.3 1.6-.4 2.1l-5.5 3.7c-.3.2-.6.3-.8.3zm0 3.7c-.5 0-1-.2-1.3-.7-.5-.7-.3-1.6.4-2.1l5.5-3.7c.7-.5 1.6-.3 2.1.4s.3 1.6-.4 2.1l-5.5 3.7c-.3.2-.6.3-.8.3z"/><path d="M60 56H31c-.8 0-1.5-.7-1.5-1.5v-17c0-.8.7-1.5 1.5-1.5h29c.8 0 1.5.7 1.5 1.5v17c0 .8-.7 1.5-1.5 1.5zm-27.5-3h26V39h-26v14z"/><path d="M45.5 56c-.8 0-1.5-.7-1.5-1.5v-17c0-.8.7-1.5 1.5-1.5s1.5.7 1.5 1.5v17c0 .8-.7 1.5-1.5 1.5z"/><path d="M71.5 56h-52c-.8 0-1.5-.7-1.5-1.5v-45c0-.8.7-1.5 1.5-1.5h18c.8 0 1.5.7 1.5 1.5s-.7 1.5-1.5 1.5H21v42h49V11H53.5c-.8 0-1.5-.7-1.5-1.5S52.7 8 53.5 8h18c.8 0 1.5.7 1.5 1.5v45c0 .8-.7 1.5-1.5 1.5z"/></svg>