<svg version="1.1" id="Layer_1" xmlns="http://www.w3.org/2000/svg" x="0" y="0" viewBox="0 0 65.4 90.5" xml:space="preserve"><path d="M60.9 90.5H4.5C2 90.5 0 88.5 0 86V4.5C0 2 2 0 4.5 0h56.4c2.5 0 4.5 2 4.5 4.5V86c0 2.5-2 4.5-4.5 4.5zM4.5 3C3.7 3 3 3.7 3 4.5V86c0 .8.7 1.5 1.5 1.5h56.4c.8 0 1.5-.7 1.5-1.5V4.5c0-.8-.7-1.5-1.5-1.5H4.5z"/><path d="M63.5 75.3H2c-.8 0-1.5-.7-1.5-1.5s.7-1.5 1.5-1.5h61.5c.8 0 1.5.7 1.5 1.5s-.7 1.5-1.5 1.5zM35.7 50.6h-6c-.8 0-1.5-.7-1.5-1.5v-5.5h-5.5c-.8 0-1.5-.7-1.5-1.5v-6c0-.8.7-1.5 1.5-1.5h5.5v-5.5c0-.8.7-1.5 1.5-1.5h6c.8 0 1.5.7 1.5 1.5v5.5h5.5c.8 0 1.5.7 1.5 1.5v6c0 .8-.7 1.5-1.5 1.5h-5.5v5.5c0 .8-.7 1.5-1.5 1.5zm-4.5-3h3v-5.5c0-.8.7-1.5 1.5-1.5h5.5v-3h-5.5c-.8 0-1.5-.7-1.5-1.5v-5.5h-3v5.5c0 .8-.7 1.5-1.5 1.5h-5.5v3h5.5c.8 0 1.5.7 1.5 1.5v5.5z"/><path d="M48.5 56.4H16.9c-.8 0-1.5-.7-1.5-1.5V23.3c0-.8.7-1.5 1.5-1.5h31.6c.8 0 1.5.7 1.5 1.5v31.6c0 .8-.7 1.5-1.5 1.5zm-30.1-3H47V24.8H18.4v28.6zm14.3 29.3c-.4 0-.8-.2-1.1-.4-.3-.3-.4-.7-.4-1.1 0-.4.2-.8.4-1.1.6-.6 1.6-.6 2.1 0 .3.3.4.7.4 1.1 0 .4-.2.8-.4 1.1s-.6.4-1 .4z"/></svg>