<svg width="24" height="18" fill="none" xmlns="http://www.w3.org/2000/svg"><path fill-rule="evenodd" clip-rule="evenodd" d="M2 0h20c1.1 0 2 .9 2 2l-.01 14c0 1.1-.89 2-1.99 2H2c-1.1 0-2-.9-2-2V2C0 .9.9 0 2 0zm0 16h20V2H2v14zM21 3h-7v5h7V3zm-3.5 3.75L20 5V4l-2.5 1.75L15 4v1l2.5 1.75zM9 9c1.65 0 3-1.35 3-3s-1.35-3-3-3-3 1.35-3 3 1.35 3 3 3zm1-3c0-.55-.45-1-1-1s-1 .45-1 1 .45 1 1 1 1-.45 1-1zm5 7.59c0-2.5-3.97-3.58-6-3.58s-6 1.08-6 3.58V15h12v-1.41zM9 12c-1.3 0-2.78.5-3.52 1h7.04c-.75-.51-2.22-1-3.52-1z" fill="#000"/></svg>