<svg width="21" height="21" fill="none" xmlns="http://www.w3.org/2000/svg"><path fill-rule="evenodd" clip-rule="evenodd" d="M1.5.375h3.938c.618 0 1.125.506 1.125 1.125 0 1.406.224 2.756.64 4.016a1.13 1.13 0 01-.28 1.148L4.447 9.139a17.042 17.042 0 007.414 7.413l2.475-2.474c.225-.214.506-.327.799-.327.113 0 .236.011.349.056a12.81 12.81 0 004.016.642c.619 0 1.125.506 1.125 1.125V19.5c0 .619-.506 1.125-1.125 1.125C8.936 20.625.375 12.064.375 1.5.375.881.881.375 1.5.375zm2.857 2.25c.068 1.001.237 1.98.507 2.914l-1.35 1.35a16.679 16.679 0 01-.855-4.264h1.699zM15.45 16.148c.956.27 1.935.438 2.925.506v1.676a17.352 17.352 0 01-4.275-.844l1.35-1.338z" fill="#000"/></svg>