<svg width="20" height="20" fill="none" xmlns="http://www.w3.org/2000/svg"><path fill-rule="evenodd" clip-rule="evenodd" d="M10 0C4.48 0 0 4.48 0 10s4.48 10 10 10 10-4.48 10-10S15.52 0 10 0zM5.07 16.28c.43-.9 3.05-1.78 4.93-1.78s4.51.88 4.93 1.78A7.893 7.893 0 0110 18c-1.86 0-3.57-.64-4.93-1.72zM10 12.5c1.46 0 4.93.59 6.36 2.33A7.95 7.95 0 0018 10c0-4.41-3.59-8-8-8s-8 3.59-8 8c0 1.82.62 3.49 1.64 4.83 1.43-1.74 4.9-2.33 6.36-2.33zM10 4C8.06 4 6.5 5.56 6.5 7.5S8.06 11 10 11s3.5-1.56 3.5-3.5S11.94 4 10 4zM8.5 7.5c0 .83.67 1.5 1.5 1.5s1.5-.67 1.5-1.5S10.83 6 10 6s-1.5.67-1.5 1.5z" fill="#000"/></svg>